# xmcd
#
# Track frame offsets:
# 150
# 18025
# 32780
# 49795
# 65035
# 81165
# 95902
# 115820
# 136440
# 152680
# 170790
# 186337
# 202292
# 217580
# 235305
# 252690
# 266065
# 283837
# 296440
#
# Disc length: 4166 seconds
#
#
# Revision: 0
# Processed by: cddbd v1.5.2PL0 Copyright (c) Steve Scherf et al.
# Submitted via: FreeRIP 2.951 
#
DISCID=2a104413
DTITLE=Various Artist - Fiesta!
DYEAR=1998
DGENRE=Latin
TTITLE0=Dario G - Carnaval de Paris
TTITLE1=dixie´s gang - el ritmo tropical
TTITLE2=Papa Dee - Island Rock
TTITLE3=Coumba Gawlo - Pata Pata
TTITLE4=Los Umbrellos - No Tengo Dinero
TTITLE5=Carrapicho - Tic, Tic Tac
TTITLE6=Havana - La copa De La Vida
TTITLE7=Ilegales - Sueno Contigo
TTITLE8=Rosana El Talisman
TTITLE9=cisco brothers - Guaglione
TTITLE10=The afro Cuban Band fert. Noey Matos - Ban Bang
TTITLE11=Candela Azul - Juegalo
TTITLE12=Carlinhos Brown - A Namorada
TTITLE13=Hamyna - Ay la Vida, Ay LÁmor
TTITLE14=Los del Trio - Macarena (Bayside Mix)
TTITLE15=La Fuertezza - 2 The Night (Valentini Mix)
TTITLE16=E o Tchan - E o tchan
TTITLE17=Bellini - Samba de Janeiro
TTITLE18=The Sunclub - Fiesta de los Tamborileros
EXTD=
EXTT0=
EXTT1=
EXTT2=
EXTT3=
EXTT4=
EXTT5=
EXTT6=
EXTT7=
EXTT8=
EXTT9=
EXTT10=
EXTT11=
EXTT12=
EXTT13=
EXTT14=
EXTT15=
EXTT16=
EXTT17=
EXTT18=
PLAYORDER=
